<svg width="485" height="485" viewBox="0 0 485 485" fill="none" xmlns="http://www.w3.org/2000/svg">
<rect width="485" height="485" rx="54" fill="black"/>
<path d="M289.037 202.169C289.358 194.15 287.016 187.959 282.012 183.596C277.071 179.233 269.597 177.052 259.589 177.052C252.788 177.052 246.886 178.014 241.881 179.939C236.877 181.799 232.867 184.398 229.852 187.734C226.901 191.006 225.072 194.791 224.366 199.09C223.661 202.618 223.885 205.698 225.04 208.328C226.259 210.959 228.152 213.237 230.718 215.161C233.348 217.022 236.46 218.658 240.053 220.069C243.646 221.417 247.463 222.571 251.505 223.534L268.442 227.768C276.719 229.693 284.161 232.259 290.769 235.467C297.441 238.675 303.023 242.62 307.514 247.304C312.069 251.987 315.277 257.505 317.138 263.857C318.998 270.208 319.255 277.49 317.908 285.702C315.855 297.764 311.075 308.221 303.568 317.075C296.062 325.864 286.214 332.697 274.024 337.573C261.834 342.385 247.72 344.791 231.68 344.791C215.769 344.791 202.328 342.353 191.357 337.477C180.387 332.601 172.399 325.383 167.395 315.824C162.455 306.2 160.979 294.299 162.968 280.12H203.291C202.585 286.729 203.547 292.246 206.178 296.673C208.872 301.036 212.882 304.34 218.207 306.585C223.532 308.767 229.788 309.857 236.973 309.857C244.095 309.857 250.414 308.831 255.932 306.778C261.513 304.725 266.036 301.87 269.501 298.213C272.965 294.556 275.083 290.353 275.852 285.606C276.622 281.179 275.949 277.458 273.832 274.442C271.714 271.427 268.314 268.861 263.631 266.744C259.011 264.562 253.269 262.638 246.404 260.969L225.81 255.58C209.899 251.538 197.869 245.219 189.721 236.622C181.573 228.025 178.654 216.444 180.964 201.881C183.017 189.947 187.989 179.522 195.881 170.604C203.836 161.622 213.845 154.661 225.906 149.721C238.032 144.717 251.28 142.214 265.652 142.214C280.279 142.214 292.63 144.749 302.702 149.817C312.775 154.821 320.121 161.815 324.74 170.797C329.36 179.779 330.771 190.236 328.975 202.169H289.037Z" fill="white"/>
</svg>
