<svg width="69" height="69" viewBox="0 0 69 69" fill="none" xmlns="http://www.w3.org/2000/svg">
<rect width="69" height="69" rx="13" fill="black"/>
<path d="M28.5636 21.5455H35.4741L32.7646 37.8523C32.4497 39.7912 31.7123 41.4691 30.5522 42.886C29.4005 44.2946 27.9339 45.3842 26.1524 46.1548C24.3709 46.9171 22.3906 47.2983 20.2113 47.2983C18.0156 47.2983 16.1595 46.9171 14.6432 46.1548C13.1268 45.3842 12.0248 44.2946 11.337 42.886C10.6576 41.4691 10.4753 39.7912 10.7902 37.8523L13.4997 21.5455H20.4102L17.8001 37.2557C17.6758 38.0429 17.738 38.743 17.9866 39.3562C18.2351 39.9693 18.637 40.4541 19.1922 40.8104C19.7473 41.1584 20.4185 41.3324 21.2057 41.3324C22.0011 41.3324 22.7344 41.1584 23.4056 40.8104C24.085 40.4541 24.6485 39.9693 25.0959 39.3562C25.5434 38.743 25.8292 38.0429 25.9535 37.2557L28.5636 21.5455ZM60.7826 21.5455L56.5568 47H50.7897L43.8295 33.6264H43.6804L41.4431 47H34.5326L38.7585 21.5455H44.625L51.4858 34.8693H51.6846L53.8721 21.5455H60.7826Z" fill="white"/>
</svg>
