<svg width="58" height="14" viewBox="0 0 58 14" fill="none" xmlns="http://www.w3.org/2000/svg">
<path d="M8.34495 4.22834C8.36507 3.72526 8.21817 3.33688 7.90425 3.06321C7.59436 2.78954 7.12549 2.6527 6.49765 2.6527C6.07104 2.6527 5.70077 2.71307 5.38685 2.83381C5.07293 2.95052 4.82139 3.11352 4.63224 3.3228C4.4471 3.52805 4.3324 3.76551 4.28813 4.03516C4.24386 4.25651 4.25795 4.44969 4.33039 4.6147C4.40686 4.77971 4.52558 4.92259 4.68657 5.04332C4.85158 5.16004 5.04677 5.26267 5.27215 5.35121C5.49753 5.43572 5.73699 5.50817 5.99055 5.56854L7.05305 5.83416C7.57222 5.9549 8.03908 6.11589 8.45361 6.31712C8.87217 6.51835 9.22232 6.76586 9.50404 7.05966C9.78979 7.35346 9.99102 7.69957 10.1077 8.09801C10.2244 8.49645 10.2405 8.95324 10.156 9.46839C10.0272 10.225 9.72741 10.881 9.25653 11.4364C8.78564 11.9878 8.16787 12.4164 7.40319 12.7223C6.63851 13.0241 5.75309 13.1751 4.74694 13.1751C3.74883 13.1751 2.90567 13.0221 2.21746 12.7163C1.52925 12.4104 1.02819 11.9576 0.714267 11.358C0.404371 10.7543 0.311805 10.0077 0.436568 9.11825H2.96604C2.92177 9.53279 2.98214 9.87891 3.14715 10.1566C3.31618 10.4303 3.56772 10.6375 3.90177 10.7784C4.23581 10.9152 4.62821 10.9837 5.07897 10.9837C5.5257 10.9837 5.92213 10.9193 6.26824 10.7905C6.61839 10.6617 6.90212 10.4826 7.11945 10.2532C7.33678 10.0238 7.46959 9.76018 7.51789 9.46236C7.56618 9.18466 7.52393 8.95123 7.39111 8.76207C7.2583 8.57292 7.045 8.41193 6.7512 8.27912C6.46143 8.14228 6.10122 8.02154 5.67059 7.9169L4.37868 7.57883C3.38058 7.32528 2.62596 6.92886 2.11483 6.38956C1.60371 5.85026 1.42059 5.12382 1.56547 4.21023C1.69426 3.46165 2.00617 2.80765 2.5012 2.24822C3.00025 1.68478 3.62809 1.24811 4.38472 0.93821C5.14537 0.624289 5.97646 0.467329 6.87797 0.467329C7.79559 0.467329 8.57033 0.626302 9.20219 0.944247C9.83406 1.25817 10.2949 1.69685 10.5847 2.2603C10.8744 2.82375 10.963 3.47976 10.8503 4.22834H8.34495ZM23.6923 6.98722C23.467 8.30729 23.0303 9.42815 22.3823 10.3498C21.7384 11.2714 20.9516 11.9717 20.0219 12.4506C19.0962 12.9296 18.0981 13.169 17.0276 13.169C15.9047 13.169 14.9368 12.9135 14.1238 12.4023C13.3149 11.8912 12.7293 11.1527 12.3671 10.1868C12.0048 9.21686 11.9364 8.0477 12.1618 6.67933C12.3791 5.35523 12.8118 4.23236 13.4597 3.31072C14.1077 2.38506 14.8985 1.68075 15.8323 1.1978C16.766 0.710819 17.7701 0.467329 18.8447 0.467329C19.9595 0.467329 20.9214 0.724905 21.7303 1.24006C22.5433 1.75521 23.1289 2.49976 23.4871 3.47372C23.8493 4.44366 23.9177 5.61482 23.6923 6.98722ZM21.0904 6.67933C21.2313 5.83014 21.2252 5.11778 21.0723 4.54226C20.9234 3.96271 20.6497 3.52403 20.2513 3.22621C19.8528 2.92839 19.3498 2.77947 18.7421 2.77947C18.082 2.77947 17.4763 2.94448 16.9249 3.2745C16.3776 3.60452 15.9148 4.08345 15.5364 4.71129C15.1622 5.33511 14.9026 6.09375 14.7577 6.98722C14.6128 7.84044 14.6168 8.55279 14.7698 9.12429C14.9267 9.69579 15.2064 10.1284 15.6089 10.4222C16.0154 10.712 16.5205 10.8569 17.1242 10.8569C17.7802 10.8569 18.3798 10.6959 18.9232 10.3739C19.4705 10.0479 19.9313 9.57505 20.3056 8.95526C20.6799 8.33144 20.9415 7.5728 21.0904 6.67933ZM24.6266 13L26.6791 0.636363H31.6294C32.539 0.636363 33.2755 0.771188 33.8389 1.04084C34.4064 1.31049 34.8028 1.68478 35.0282 2.16371C35.2536 2.63861 35.3139 3.18596 35.2093 3.80575C35.1248 4.28871 34.9537 4.71129 34.6962 5.07351C34.4426 5.43572 34.1287 5.73355 33.7544 5.96697C33.3801 6.2004 32.9736 6.36541 32.5349 6.462L32.5108 6.58274C32.9776 6.60286 33.3982 6.73568 33.7725 6.98118C34.1468 7.22266 34.4265 7.56475 34.6116 8.00746C34.7968 8.45017 34.839 8.97538 34.7384 9.5831C34.6298 10.2391 34.3702 10.8247 33.9597 11.3398C33.5491 11.851 33.0018 12.2554 32.3176 12.5533C31.6374 12.8511 30.8345 13 29.9089 13H24.6266ZM27.6028 10.8629H29.7338C30.4582 10.8629 31.0116 10.7221 31.394 10.4403C31.7763 10.1586 32.0057 9.78634 32.0822 9.32351C32.1345 8.98142 32.1003 8.67957 31.9795 8.41797C31.8628 8.15637 31.6636 7.95111 31.3819 7.8022C31.1042 7.65329 30.752 7.57883 30.3254 7.57883H28.14L27.6028 10.8629ZM28.4419 5.81001H30.3798C30.7339 5.81001 31.0619 5.74763 31.3638 5.62287C31.6696 5.49408 31.9212 5.31297 32.1184 5.07955C32.3196 4.84209 32.4464 4.56238 32.4987 4.24041C32.5712 3.78965 32.4705 3.42945 32.1969 3.1598C31.9272 2.88613 31.5046 2.74929 30.9291 2.74929H28.949L28.4419 5.81001ZM35.8658 13L37.9184 0.636363H46.2493L45.8871 2.79155H40.1701L39.6872 5.73757H44.9755L44.6133 7.89276H39.325L38.842 10.8448H44.5831L44.2209 13H35.8658ZM54.4309 4.22834C54.451 3.72526 54.3041 3.33688 53.9902 3.06321C53.6803 2.78954 53.2114 2.6527 52.5836 2.6527C52.157 2.6527 51.7867 2.71307 51.4728 2.83381C51.1589 2.95052 50.9073 3.11352 50.7182 3.3228C50.533 3.52805 50.4183 3.76551 50.3741 4.03516C50.3298 4.25651 50.3439 4.44969 50.4163 4.6147C50.4928 4.77971 50.6115 4.92259 50.7725 5.04332C50.9375 5.16004 51.1327 5.26267 51.3581 5.35121C51.5835 5.43572 51.8229 5.50817 52.0765 5.56854L53.139 5.83416C53.6582 5.9549 54.125 6.11589 54.5396 6.31712C54.9581 6.51835 55.3083 6.76586 55.59 7.05966C55.8757 7.35346 56.077 7.69957 56.1937 8.09801C56.3104 8.49645 56.3265 8.95324 56.242 9.46839C56.1132 10.225 55.8133 10.881 55.3425 11.4364C54.8716 11.9878 54.2538 12.4164 53.4891 12.7223C52.7244 13.0241 51.839 13.1751 50.8329 13.1751C49.8348 13.1751 48.9916 13.0221 48.3034 12.7163C47.6152 12.4104 47.1141 11.9576 46.8002 11.358C46.4903 10.7543 46.3977 10.0077 46.5225 9.11825H49.052C49.0077 9.53279 49.0681 9.87891 49.2331 10.1566C49.4021 10.4303 49.6537 10.6375 49.9877 10.7784C50.3217 10.9152 50.7141 10.9837 51.1649 10.9837C51.6116 10.9837 52.0081 10.9193 52.3542 10.7905C52.7043 10.6617 52.9881 10.4826 53.2054 10.2532C53.4227 10.0238 53.5555 9.76018 53.6038 9.46236C53.6521 9.18466 53.6099 8.95123 53.4771 8.76207C53.3442 8.57292 53.1309 8.41193 52.8371 8.27912C52.5474 8.14228 52.1872 8.02154 51.7565 7.9169L50.4646 7.57883C49.4665 7.32528 48.7119 6.92886 48.2008 6.38956C47.6896 5.85026 47.5065 5.12382 47.6514 4.21023C47.7802 3.46165 48.0921 2.80765 48.5871 2.24822C49.0862 1.68478 49.714 1.24811 50.4707 0.93821C51.2313 0.624289 52.0624 0.467329 52.9639 0.467329C53.8815 0.467329 54.6563 0.626302 55.2881 0.944247C55.92 1.25817 56.3808 1.69685 56.6706 2.2603C56.9604 2.82375 57.0489 3.47976 56.9362 4.22834H54.4309Z" fill="white"/>
</svg>
