<svg width="49" height="27" viewBox="0 0 49 27" fill="none" xmlns="http://www.w3.org/2000/svg">
<g clip-path="url(#clip0_33_16)">
<path d="M9.125 7.36364H11.9318L10.6875 14.8693C10.5436 15.7367 10.2121 16.4924 9.69318 17.1364C9.17803 17.7765 8.52083 18.2727 7.72159 18.625C6.92235 18.9735 6.0322 19.1477 5.05114 19.1477C4.06629 19.1477 3.23485 18.9735 2.55682 18.625C1.87879 18.2727 1.38826 17.7765 1.08523 17.1364C0.782197 16.4924 0.700758 15.7367 0.840909 14.8693L2.08523 7.36364H4.89773L3.6875 14.625C3.62311 15.0265 3.65341 15.3845 3.77841 15.6989C3.9072 16.0095 4.11553 16.2557 4.40341 16.4375C4.69129 16.6155 5.04356 16.7045 5.46023 16.7045C5.88068 16.7045 6.26515 16.6155 6.61364 16.4375C6.96212 16.2557 7.25 16.0095 7.47727 15.6989C7.70455 15.3845 7.85038 15.0265 7.91477 14.625L9.125 7.36364ZM23.598 7.36364L21.6662 19H19.2798L15.7741 12.2841H15.6946L14.5753 19H11.7628L13.6946 7.36364H16.1151L19.5923 14.0682H19.6889L20.7912 7.36364H23.598Z" fill="#0D0D0D"/>
</g>
<defs>
<clipPath id="clip0_33_16">
<rect width="49" height="27" fill="white"/>
</clipPath>
</defs>
</svg>
